HIERARCHY
ROOT Hips
{
  OFFSET 50.13 94.2498 14.582
  CHANNELS 6 Xposition Yposition Zposition Zrotation Xrotation Yrotation
  JOINT spine
  {
    OFFSET 0 7.80058 0.448573
    CHANNELS 3 Zrotation Xrotation Yrotation
    JOINT spine1
    {
      OFFSET 0 10.1364 0
      CHANNELS 3 Zrotation Xrotation Yrotation
      JOINT spine2
      {
        OFFSET 0 9.71251 0
        CHANNELS 3 Zrotation Xrotation Yrotation
        JOINT Neck
        {
          OFFSET 0 24.9361 1.18887
          CHANNELS 3 Zrotation Xrotation Yrotation
          JOINT Head
          {
            OFFSET 0 7.53384 0
            CHANNELS 3 Zrotation Xrotation Yrotation
            End Site
            {
              OFFSET 0 18.2361 -6.01402
            }
          }
        }
        JOINT RightShoulder
        {
          OFFSET -4.08965 10.4888 -0.569457
          CHANNELS 3 Zrotation Xrotation Yrotation
          JOINT RightArm
          {
            OFFSET 0 13.757 0
            CHANNELS 3 Zrotation Xrotation Yrotation
            JOINT RightArmRoll
            {
              OFFSET 0 6.94478 0
              CHANNELS 3 Zrotation Xrotation Yrotation
              JOINT RightForeArm
              {
                OFFSET 0 20.2277 0
                CHANNELS 3 Zrotation Xrotation Yrotation
                JOINT RightForeArmRoll
                {
                  OFFSET 0 7.79312 0
                  CHANNELS 3 Zrotation Xrotation Yrotation
                  JOINT RightHand
                  {
                    OFFSET 0 15.6391 0
                    CHANNELS 3 Zrotation Xrotation Yrotation
                    End Site
                    {
                      OFFSET 0 0 0
                    }
                  }
                }
              }
            }
          }
        }
        JOINT LeftShoulder
        {
          OFFSET 4.08965 10.4888 -0.569457
          CHANNELS 3 Zrotation Xrotation Yrotation
          JOINT LeftArm
          {
            OFFSET 0 13.757 0
            CHANNELS 3 Zrotation Xrotation Yrotation
            JOINT LeftArmRoll
            {
              OFFSET 0 6.94478 0
              CHANNELS 3 Zrotation Xrotation Yrotation
              JOINT LeftForeArm
              {
                OFFSET 0 20.2277 0
                CHANNELS 3 Zrotation Xrotation Yrotation
                JOINT LeftForeArmRoll
                {
                  OFFSET 0 7.79312 0
                  CHANNELS 3 Zrotation Xrotation Yrotation
                  JOINT LeftHand
                  {
                    OFFSET 0 15.6391 0
                    CHANNELS 3 Zrotation Xrotation Yrotation
                    End Site
                    {
                      OFFSET 0 0 0
                    }
                  }
                }
              }
            }
          }
        }
      }
    }
  }
  JOINT RightUpLeg
  {
    OFFSET -6.91415 -1.26788 -1.06358
    CHANNELS 3 Zrotation Xrotation Yrotation
    JOINT RightUpLegRoll
    {
      OFFSET 0 18.3378 0
      CHANNELS 3 Zrotation Xrotation Yrotation
      JOINT RightLeg
      {
        OFFSET 0 -22.7085 0
        CHANNELS 3 Zrotation Xrotation Yrotation
        JOINT RightLegRoll
        {
          OFFSET 0 22.7828 0
          CHANNELS 3 Zrotation Xrotation Yrotation
          JOINT RightFoot
          {
            OFFSET 0 18.9629 0
            CHANNELS 3 Zrotation Xrotation Yrotation
            JOINT RightToeBase
            {
              OFFSET 0 15.852 0
              CHANNELS 3 Zrotation Xrotation Yrotation
              End Site
              {
                OFFSET 0.00671906 7.67701 -0.884893
              }
            }
          }
        }
      }
    }
  }
  JOINT LeftUpLeg
  {
    OFFSET 6.91415 -1.26788 -1.06358
    CHANNELS 3 Zrotation Xrotation Yrotation
    JOINT LeftUpLegRoll
    {
      OFFSET 0 18.3379 0
      CHANNELS 3 Zrotation Xrotation Yrotation
      JOINT LeftLeg
      {
        OFFSET 0 22.7084 0
        CHANNELS 3 Zrotation Xrotation Yrotation
        JOINT LeftLegRoll
        {
          OFFSET 0 22.9934 0
          CHANNELS 3 Zrotation Xrotation Yrotation
          JOINT LeftFoot
          {
            OFFSET 0 18.7522 0
            CHANNELS 3 Zrotation Xrotation Yrotation
            JOINT LeftToeBase
            {
              OFFSET 0 15.852 0
              CHANNELS 3 Zrotation Xrotation Yrotation
              End Site
              {
                OFFSET -0.030112 7.67701 -0.884893
              }
            }
          }
        }
      }
    }
  }
}
MOTION
Frames: 8
Frame Time: 0.00208333
51.837 94.1127 11.7411 -1.24459 -5.99572 -0.512978 0.079039 -0.536588 0.27526 0.15731 2.91415 0.541188 0.150752 4.55919 0.539154 0.434027 17.2155 -3.01406 8.05294 -16.9823 -0.853073 85.6296 -3.95037 -4.28938 85.6668 16.5345 19.5149 3.26007e-014 -1.43125e-014 9.54166e-015 8.69211 15.3392 -2.39607 1.31736e-005 1.60735e-006 -2.99999 8.02908 -4.95144 0.697682 -67.225 3.61889 -0.84474 -103.496 6.01066 -9.44317 1.00444e-005 3.02634e-006 -2.06666e-006 -7.16328 15.4796 2.18883 4.0087e-006 1.52755e-006 3 -8.02927 -4.95144 -0.697654 178.63 1.09704 -0.47951 180 7.01568e-015 179.017 178.717 10.4654 179.502 -6.88115e-008 -1.91501e-007 0.102281 -16.33 67.8843 19.4322 8.13649 25.2327 -3.48774 -179.967 0.0813341 6.45686 4.54188e-006 -4.6773e-006 -1.50171 -4.81394 -14.6301 -0.388262 -1.84221e-007 -5.43249e-006 -0.352946 27.4195 72.813 -25.2331 -8.13649 25.2327 3.48774 
51.8392 94.1167 11.7531 -1.2479 -5.99037 -0.499829 0.0790017 -0.535613 0.27616 0.156338 2.91615 0.543257 0.149769 4.56119 0.541237 0.459628 17.1805 -3.02899 8.03671 -16.9773 -0.864826 85.6292 -3.9505 -4.28939 85.6377 16.401 19.7212 1.27222e-014 -3.18055e-015 3.18055e-015 8.58985 15.3073 -2.38344 1.31736e-005 1.60735e-006 -2.99999 8.02908 -4.95144 0.697682 -67.2075 3.61106 -0.843445 -103.5 5.97035 -9.54103 1.00444e-005 3.02634e-006 -2.06666e-006 -7.10603 15.4056 2.1735 4.0087e-006 1.52755e-006 3 -8.02927 -4.95144 -0.697654 178.616 1.08869 -0.444582 180 7.01567e-015 179.016 178.672 10.451 179.51 -6.88115e-008 -1.91501e-007 0.102276 -16.3628 67.8885 19.4355 8.13649 25.2327 -3.48774 -179.961 0.0847903 6.4546 4.54188e-006 -4.6773e-006 -1.50151 -4.81276 -14.6249 -0.38754 -1.84221e-007 -5.43249e-006 -0.352957 27.4071 72.8079 -25.2258 -8.13649 25.2327 3.48774 
51.8451 94.1165 11.7525 -1.25121 -5.98473 -0.486905 0.0789488 -0.534651 0.277087 0.155294 2.91809 0.545407 0.148713 4.56313 0.543404 0.486936 17.1449 -3.04413 8.01851 -16.9724 -0.876771 85.629 -3.9506 -4.28941 85.6103 16.2672 19.927 7.95139e-016 3.18055e-015 3.18055e-015 8.48802 15.2765 -2.371 1.31736e-005 1.60735e-006 -2.99999 8.02908 -4.95144 0.697682 -67.1887 3.60241 -0.841936 -103.506 5.93051 -9.63819 1.00444e-005 3.02634e-006 -2.06666e-006 -7.04866 15.3314 2.15809 4.0087e-006 1.52755e-006 3 -8.02927 -4.95144 -0.697654 178.601 1.08048 -0.408306 180 7.01567e-015 179.015 178.626 10.4362 179.518 -6.88115e-008 -1.91501e-007 0.102275 -16.3966 67.8926 19.4388 8.13649 25.2327 -3.48774 -179.956 0.0889766 6.4524 4.54188e-006 -4.6773e-006 -1.50133 -4.81163 -14.6197 -0.386838 -1.84221e-007 -5.43249e-006 -0.352973 27.394 72.8024 -25.2181 -8.13649 25.2327 3.48774 
51.8423 94.1097 11.7641 -1.25453 -5.97889 -0.474138 0.078885 -0.5337 0.278032 0.1542 2.91998 0.547615 0.147607 4.56503 0.545628 0.51543 17.1089 -3.05941 7.99893 -16.9675 -0.888851 85.629 -3.9507 -4.28944 85.5844 16.1331 20.1324 -7.95139e-016 0 -3.18055e-015 8.38649 15.2463 -2.35868 1.31736e-005 1.60735e-006 -2.99999 8.02908 -4.95144 0.697682 -67.1689 3.59317 -0.840277 -103.513 5.891 -9.73486 1.00444e-005 3.02634e-006 -2.06666e-006 -6.99121 15.257 2.14263 4.0087e-006 1.52755e-006 3 -8.02927 -4.95144 -0.697654 178.585 1.07238 -0.371086 180 7.01567e-015 179.015 178.578 10.421 179.526 -6.88115e-008 -1.91501e-007 0.102277 -16.4311 67.8968 19.4421 8.13649 25.2327 -3.48774 -179.95 0.0936739 6.45025 4.54188e-006 -4.6773e-006 -1.50114 -4.81053 -14.6147 -0.386151 -1.84221e-007 -5.43249e-006 -0.352993 27.3804 72.7966 -25.2099 -8.13649 25.2327 3.48774 
51.8352 94.1139 11.7554 -1.25786 -5.97293 -0.46146 0.078815 -0.532754 0.278988 0.153077 2.92186 0.549855 0.146471 4.5669 0.547886 0.544594 17.0727 -3.07478 7.97856 -16.9627 -0.901008 85.6291 -3.95078 -4.28948 85.5597 15.999 20.3374 1.90833e-014 -3.18055e-015 9.54166e-015 8.28514 15.2166 -2.34645 1.31736e-005 1.60735e-006 -2.99999 8.02908 -4.95144 0.697682 -67.1486 3.5836 -0.838533 -103.522 5.85169 -9.83124 1.00444e-005 3.02634e-006 -2.06666e-006 -6.93374 15.1825 2.12715 4.0087e-006 1.52755e-006 3 -8.02927 -4.95144 -0.697654 178.569 1.06432 -0.333326 180 7.01567e-015 179.014 178.53 10.4056 179.534 -6.88115e-008 -1.91501e-007 0.10228 -16.4659 67.9009 19.4453 8.13649 25.2327 -3.48774 -179.944 0.0986633 6.44813 4.54188e-006 -4.6773e-006 -1.50095 -4.80946 -14.6097 -0.385471 -1.84221e-007 -5.43249e-006 -0.353015 27.3664 72.7906 -25.2016 -8.13649 25.2327 3.48774 
51.8329 94.1109 11.765 -1.26118 -5.96694 -0.448805 0.0787433 -0.53181 0.279947 0.151947 2.92373 0.552104 0.145328 4.56877 0.550152 0.57391 17.0364 -3.09017 7.958 -16.9578 -0.913183 85.6292 -3.95086 -4.28952 85.536 15.865 20.5422 -1.59028e-015 3.18055e-015 3.18055e-015 8.18385 15.1869 -2.33423 1.31736e-005 1.60735e-006 -2.99999 8.02908 -4.95144 0.697682 -67.1281 3.57394 -0.836768 -103.531 5.81242 -9.92755 1.00444e-005 3.02634e-006 -2.06666e-006 -6.87629 15.108 2.11168 4.0087e-006 1.52755e-006 3 -8.02927 -4.95144 -0.697654 178.553 1.05629 -0.295432 180 7.01567e-015 179.013 178.482 10.3901 179.542 -6.88115e-008 -1.91501e-007 0.102284 -16.5009 67.905 19.4486 8.13649 25.2327 -3.48774 -179.939 0.103726 6.44601 4.54188e-006 -4.6773e-006 -1.50077 -4.80838 -14.6047 -0.384794 -1.84221e-007 -5.43249e-006 -0.353038 27.3524 72.7847 -25.1933 -8.13649 25.2327 3.48774 
51.8362 94.111 11.7662 -1.26451 -5.96101 -0.436106 0.0786748 -0.530863 0.2809 0.150831 2.92561 0.554337 0.1442 4.57065 0.552402 0.602862 17.0002 -3.10551 7.93783 -16.953 -0.925319 85.6293 -3.95095 -4.28955 85.5131 15.7311 20.7469 1.98785e-014 -1.11319e-014 6.36111e-015 8.08249 15.1571 -2.32198 1.31736e-005 1.60735e-006 -2.99999 8.02908 -4.95144 0.697682 -67.108 3.56446 -0.835045 -103.539 5.77307 -10.024 1.00444e-005 3.02634e-006 -2.06666e-006 -6.81892 15.0335 2.09624 4.0087e-006 1.52755e-006 3 -8.02927 -4.95144 -0.697654 178.537 1.04822 -0.257808 180 7.01567e-015 179.012 178.434 10.3748 179.55 -6.88115e-008 -1.91501e-007 0.102287 -16.5356 67.9091 19.4519 8.13649 25.2327 -3.48774 -179.933 0.108642 6.44388 4.54188e-006 -4.6773e-006 -1.50058 -4.8073 -14.5996 -0.384113 -1.84221e-007 -5.43249e-006 -0.35306 27.3386 72.7788 -25.185 -8.13649 25.2327 3.48774 
51.8281 94.1205 11.7739 -1.26784 -5.95522 -0.423295 0.078614 -0.529908 0.28184 0.149751 2.92751 0.556528 0.143107 4.57255 0.55461 0.630931 16.9644 -3.12074 7.91866 -16.9481 -0.937358 85.6293 -3.95105 -4.28958 85.4907 15.5975 20.9517 3.97569e-015 -3.18055e-015 -0 7.98093 15.1267 -2.30964 1.31736e-005 1.60735e-006 -2.99999 8.02908 -4.95144 0.697682 -67.0884 3.55538 -0.833429 -103.547 5.73349 -10.1208 1.00444e-005 3.02634e-006 -2.06666e-006 -6.76167 14.9592 2.08086 4.0087e-006 1.52755e-006 3 -8.02927 -4.95144 -0.697654 178.522 1.04008 -0.220858 180 7.01567e-015 179.012 178.387 10.3597 179.558 -6.88115e-008 -1.91501e-007 0.102288 -16.5699 67.9133 19.4552 8.13649 25.2327 -3.48774 -179.927 0.113194 6.44172 4.54188e-006 -4.6773e-006 -1.5004 -4.80619 -14.5946 -0.383421 -1.84221e-007 -5.43249e-006 -0.353079 27.3251 72.7731 -25.177 -8.13649 25.2327 3.48774 
